<?xml version="1.0" encoding="utf-8"?>
<!-- Generator: Adobe Illustrator 24.1.0, SVG Export Plug-In . SVG Version: 6.00 Build 0)  -->
<svg version="1.1" id="Layer_1" xmlns="http://www.w3.org/2000/svg" xmlns:xlink="http://www.w3.org/1999/xlink" x="0px" y="0px"
	 viewBox="0 0 150 150" style="enable-background:new 0 0 150 150;" xml:space="preserve">
<g>
	<path d="M121.9,36.1H77.8v-8c0-0.8-0.6-1.4-1.4-1.4h-8.8c-0.8,0-1.4,0.6-1.4,1.4v8H48.8c-0.8,0-1.4,0.6-1.4,1.4v12.2
		c-0.9,0.5-1.8,1.2-2.6,1.9v-4.2c0-2.6-2.6-4.7-6.3-5.4V39c0-0.8-0.6-1.4-1.4-1.4c-2.5,0-5.1,1-7,2.6c-2.2,1.9-3.4,4.5-3.4,7.4v5.9
		c0,1.8,2.8,1.8,2.8,0v-5.9c0-3.1,2.3-6.4,6.1-7.1v54.3c-2.2,0.3-4.5,1.2-6.1,2.7c0-1.9,0-36.5,0-36.5c0-1.8-2.8-1.8-2.8,0v44
		c0,0.1,0,0.2,0,0.2c0.1,4.2,4,7.3,9,7.3c2.5,0,4.6-0.7,6.3-1.8l0,5.2c0,4.8,4.8,7.5,9.1,7.5c4.5,0,9.1-2.6,9.1-7.5l0-20h40.3
		l-29.4,25c-1,0.8-0.4,2.5,0.9,2.5h42.6c0.8,0,1.4-0.6,1.4-1.4V115c0-1.8-2.8-1.8-2.8,0v5.5H75.9l37.4-31.8v18.6
		c0,1.8,2.8,1.8,2.8,0V95.8h5.8c0.8,0,1.4-0.6,1.4-1.4V74.6V37.5C123.3,36.7,122.7,36.1,121.9,36.1z M120.5,38.9v34.3H87.3V38.9
		H120.5z M75,29.5v36.2h-6v-3.6h1c1.8,0,1.8-2.8,0-2.8h-1v-3.7h2.3c1.8,0,1.8-2.8,0-2.8H69V49h1c0.8,0,1.4-0.6,1.4-1.4
		c0-0.8-0.6-1.4-1.4-1.4h-1v-3.7h2.3c1.8,0,1.8-2.8,0-2.8H69V36h1c1.8,0,1.8-2.8,0-2.8h-1v-3.6L75,29.5z M49,51.9
		c0.6-0.3,1.3-0.5,1.9-0.6l0,54.3c-1.6,0.2-4.1,0.8-6.1,2.7c0-1.9,0-3.4,0-3.4l0-46.5C44.8,55.9,46.4,53.2,49,51.9L49,51.9z
		 M57.3,111.7c0,0-0.1-0.1-0.1-0.1c-1.6-0.9-3.7-1.4-6-1.4l0-1.8c0.7-0.1,1.1-0.1,1.1-0.1c0.9-0.1,1.4-0.5,1.5-1.4l0-51.2
		c1.9,0.5,3.5,1.4,3.5,2.5L57.3,111.7z M42,47.4v46.7v6.7c-1.6-0.9-3.7-1.5-6.1-1.5v-1.8c0.7-0.1,1.1-0.1,1.1-0.1
		c0.9-0.1,1.4-0.5,1.5-1.4V44.9C40.6,45.4,42,46.5,42,47.4z M42,105.7c0,2.2-2.9,4-6.2,4c-3.5,0-6.2-2-6.2-4.7c0-2.7,1-5.2,3.5-6.5
		v2.4c0.1,0.9,0.6,1.4,1.5,1.4c2-0.2,4.1,0,5.9,1C41.5,103.8,42.1,104.5,42,105.7z M51.1,120.5C51.1,120.5,51.1,120.5,51.1,120.5
		c-3.5,0-6.2-2-6.2-4.7c0-2.7,1-5.2,3.5-6.5l0,2.4c0.1,0.9,0.6,1.4,1.5,1.4c2.4-0.2,7.5,0.2,7.4,3.4
		C57.3,118.7,54.5,120.5,51.1,120.5L51.1,120.5z M60.1,58.2c0-2.5-2.6-4.7-6.4-5.4l0-3.1c-0.1-0.9-0.6-1.3-1.4-1.4
		c-0.7,0-1.4,0.1-2.2,0.2v-9.7h15.9v28.3c0,0.8,0.6,1.4,1.4,1.4h8.8c0.8,0,1.4-0.6,1.4-1.4V38.9h6.7v35.7V93H60.2L60.1,58.2z
		 M115.2,84.3c-0.5-0.2-1.1-0.2-1.5,0.2l-9.9,8.5H87.3V76.1h33.1V93H116v-7.4C116,85.1,115.7,84.6,115.2,84.3L115.2,84.3z"/>
	<path d="M94.1,67.2h13c0.4,0,0.7-0.2,1-0.4l6.5-6.5c0.3-0.3,0.4-0.6,0.4-1l0-13c0-0.8-0.6-1.4-1.4-1.4l-13,0c-0.4,0-0.7,0.1-1,0.4
		l-6.5,6.5c-0.3,0.3-0.4,0.6-0.4,1v13C92.7,66.6,93.3,67.2,94.1,67.2L94.1,67.2z M95.5,54.2h10.2v10.2H95.5V54.2z M108.6,62.4v-9
		l3.7-3.7l0,9L108.6,62.4z M101.2,47.7l9,0l-3.7,3.7h-9L101.2,47.7z"/>
	<path d="M100.8,86h-4.7c-1.8,0-1.8,2.8,0,2.8h4.7C102.6,88.8,102.6,86,100.8,86z"/>
	<path d="M108.1,80.3h-12c-1.8,0-1.8,2.8,0,2.8h12C110,83.2,110,80.3,108.1,80.3z"/>
	<path d="M106.8,99.4L89.8,114c-1,0.8-0.4,2.5,0.9,2.5h17.1c0.8,0,1.4-0.6,1.4-1.4v-14.5C109.2,99.4,107.8,98.6,106.8,99.4z
		 M106.3,113.6H94.5l11.8-10.1V113.6z"/>
</g>
</svg>
