<?xml version="1.0" encoding="utf-8"?>
<!-- Generator: Adobe Illustrator 24.1.0, SVG Export Plug-In . SVG Version: 6.00 Build 0)  -->
<svg version="1.1" id="Layer_1" xmlns="http://www.w3.org/2000/svg" xmlns:xlink="http://www.w3.org/1999/xlink" x="0px" y="0px"
	 viewBox="0 0 150 150" style="enable-background:new 0 0 150 150;" xml:space="preserve">
<style type="text/css">
	.st0{fill:#DAB781;}
</style>
<g>
	<g>
		<path class="st0" d="M124.3,61.2h-2.2v-8.1c0-4.8-3.9-8.7-8.7-8.7H82.1c-2.9,0-5.5,1.4-7.1,3.7c-1.6-2.2-4.2-3.7-7.1-3.7H48.2
			c-0.9,0-1.6,0.7-1.6,1.6s0.7,1.6,1.6,1.6h19.7c3,0,5.4,2.5,5.4,5.5v16c0,0-0.1-0.1-0.1-0.1c-1.9-1.8-4.5-2.8-7.1-2.8H39.5
			c-0.1-2.2-1.6-4-3.6-4.8c-0.6-0.2-1.2-0.3-1.8-0.3h-3v-8.1c0-3,2.5-5.5,5.5-5.5h5.3c0.9,0,1.6-0.7,1.6-1.6s-0.7-1.6-1.6-1.6h-5.3
			c-4.8,0-8.7,3.9-8.7,8.7v8.1h-2.2c-3,0-5.4,2.4-5.4,5.4v16.7c0,6.2,5.1,11.3,11.3,11.3h0.8c0,0-1.8,4.7-1.8,4.7
			c-1.1,3,1.2,6.2,4.3,6.2h2.6c1.4,0,2.8-0.7,3.7-1.8l6.9-9.1h53.6l6.9,9.1c0.9,1.2,2.3,1.8,3.7,1.8h2.6c3.2,0,5.4-3.3,4.3-6.2
			l-1.8-4.7h0.8c6.2,0,11.3-5.1,11.3-11.3V66.6C129.7,63.6,127.2,61.2,124.3,61.2z M76.6,53.1c0-3,2.4-5.5,5.4-5.5h31.4
			c3,0,5.4,2.5,5.4,5.5v8.1c0,0-3,0-3,0c-2.1,0-4.2,1.4-5,3.3c-0.2,0.6-0.4,1.1-0.4,1.7H83.8c-2.6,0-5.3,1.1-7.2,2.9L76.6,53.1
			L76.6,53.1z M39.6,69.4h26.7c3.9,0,7.2,3.2,7.2,7.2v2.3H39.6V69.4z M38.7,101.8c-0.3,0.3-0.7,0.6-1.1,0.6c0,0-2.6,0-2.6,0
			c-1,0-1.7-1-1.3-1.9l2.2-5.8h8.3L38.7,101.8z M115,102.4h-2.6c-0.4,0-0.9-0.2-1.1-0.6l-5.4-7.2h8.3c0,0,2.2,5.8,2.2,5.8
			C116.7,101.4,116,102.4,115,102.4z M118.4,91.4H31.6c-4.5,0-8.1-3.6-8.1-8.1V66.6c0-1.2,1-2.2,2.2-2.2h8.4c1.2,0,2.2,1,2.2,2.2
			v13.9c0,0.9,0.7,1.6,1.6,1.6h58.8c0.9,0,1.6-0.7,1.6-1.6s-0.7-1.6-1.6-1.6H76.6v-2.3c0-3.9,3.2-7.2,7.2-7.2h26.7v9.4h-7.3
			c-0.9,0-1.6,0.7-1.6,1.6s0.7,1.6,1.6,1.6h8.8c0.9,0,1.6-0.7,1.6-1.6V66.6c0-1.2,1-2.2,2.2-2.2h8.4c1.2,0,2.2,1,2.2,2.2v16.7l0,0
			C126.5,87.8,122.8,91.4,118.4,91.4z"/>
	</g>
</g>
</svg>
