<?xml version="1.0" encoding="utf-8"?>
<!-- Generator: Adobe Illustrator 24.1.0, SVG Export Plug-In . SVG Version: 6.00 Build 0)  -->
<svg version="1.1" id="Layer_1" xmlns="http://www.w3.org/2000/svg" xmlns:xlink="http://www.w3.org/1999/xlink" x="0px" y="0px"
	 viewBox="0 0 150 150" style="enable-background:new 0 0 150 150;" xml:space="preserve">
<g>
	<g>
		<path d="M124.25,61.17h-2.17v-8.07c0-4.77-3.88-8.66-8.66-8.66H82.05c-2.91,0-5.48,1.44-7.05,3.65c-1.57-2.21-4.15-3.65-7.05-3.65
			H48.24c-0.88,0-1.6,0.72-1.6,1.6s0.72,1.6,1.6,1.6h19.71c3.01,0,5.45,2.45,5.45,5.45v16.02c-0.03-0.03-0.07-0.06-0.1-0.09
			c-1.9-1.77-4.47-2.79-7.07-2.79H39.55c-0.14-2.15-1.61-4.04-3.63-4.76c-0.57-0.2-1.17-0.3-1.78-0.3h-3.02v-8.07
			c0-3.01,2.45-5.45,5.45-5.45h5.26c0.88,0,1.6-0.72,1.6-1.6s-0.72-1.6-1.6-1.6h-5.26c-4.77,0-8.66,3.88-8.66,8.66v8.07h-2.17
			c-2.99,0-5.42,2.43-5.42,5.42v16.72c0,6.22,5.06,11.29,11.29,11.29h0.8c0,0-1.75,4.72-1.76,4.72c-1.11,2.98,1.17,6.24,4.34,6.24
			h2.58c1.44,0,2.82-0.69,3.69-1.84l6.9-9.13h53.64l6.9,9.13c0.87,1.15,2.25,1.84,3.69,1.84c0,0,2.58,0,2.58,0
			c3.17,0,5.45-3.27,4.34-6.24l-1.76-4.72h0.81c6.22,0,11.29-5.06,11.29-11.29V66.59C129.67,63.6,127.24,61.17,124.25,61.17z
			 M76.6,53.09c0-3.01,2.45-5.45,5.45-5.45h31.37c3.01,0,5.45,2.45,5.45,5.45v8.07c0,0-3.01,0-3.02,0c-2.13,0-4.17,1.37-5,3.33
			c-0.23,0.55-0.37,1.14-0.41,1.73c0,0-26.68,0-26.68,0c-2.64,0-5.27,1.06-7.17,2.88L76.6,53.09L76.6,53.09z M39.56,69.43h26.67
			c3.95,0,7.17,3.22,7.17,7.17v2.28H39.56V69.43z M38.72,101.79c-0.27,0.35-0.69,0.57-1.14,0.57c0,0-2.57,0-2.58,0
			c-0.98,0-1.68-1.01-1.34-1.92l2.17-5.84h8.33L38.72,101.79z M115,102.36h-2.58c-0.44,0-0.87-0.21-1.14-0.57l-5.44-7.2h8.33
			c0,0,2.16,5.82,2.17,5.84C116.68,101.36,115.97,102.36,115,102.36z M118.39,91.39H31.61c-4.46,0-8.08-3.63-8.08-8.08V66.59
			c0-1.22,0.99-2.22,2.22-2.22h8.39c1.22,0,2.22,0.99,2.22,2.22v13.9c0,0.88,0.72,1.6,1.6,1.6h58.83c0.88,0,1.6-0.72,1.6-1.6
			c0-0.88-0.72-1.6-1.6-1.6H76.6V76.6c0-3.95,3.22-7.17,7.17-7.17h26.67v9.45h-7.25c-0.88,0-1.6,0.72-1.6,1.6
			c0,0.88,0.72,1.6,1.6,1.6h8.85c0.88,0,1.6-0.72,1.6-1.6v-13.9c0-1.22,0.99-2.22,2.22-2.22h8.39c1.22,0,2.22,0.99,2.22,2.22v16.72
			h0C126.47,87.77,122.84,91.39,118.39,91.39z"/>
	</g>
</g>
</svg>
