<?xml version="1.0" encoding="utf-8"?>
<!-- Generator: Adobe Illustrator 23.0.0, SVG Export Plug-In . SVG Version: 6.00 Build 0)  -->
<svg version="1.1" id="Layer_1" xmlns="http://www.w3.org/2000/svg" xmlns:xlink="http://www.w3.org/1999/xlink" x="0px" y="0px"
	 viewBox="0 0 50 50" style="enable-background:new 0 0 50 50;" xml:space="preserve">
<style type="text/css">
	.st0{fill:#010101;}
</style>
<g>
	<g>
		<path class="st0" d="M25,12.4c-6.9,0-12.6,5.6-12.6,12.6c0,6.9,5.6,12.6,12.6,12.6c6.9,0,12.6-5.6,12.6-12.6S32,12.4,25,12.4
			L25,12.4z M25,33.2c-4.5,0-8.2-3.7-8.2-8.2s3.7-8.2,8.2-8.2s8.2,3.7,8.2,8.2S29.5,33.2,25,33.2z"/>
		<path class="st0" d="M35.1,0.7c-4.5-0.2-15.7-0.2-20.2,0c-4,0.2-7.5,1.1-10.3,4c-4.7,4.6-4.1,11-4.1,20.3c0,9.5-0.5,15.7,4.1,20.4
			c4.7,4.7,11.2,4.1,20.4,4.1c9.4,0,12.7,0,16-1.3c4.5-1.8,8-5.8,8.3-13.1c0.2-4.5,0.2-15.7,0-20.2C48.9,6.3,44.3,1.1,35.1,0.7
			L35.1,0.7z M42.2,42.2c-3.1,3.1-7.4,2.8-17.3,2.8c-10.2,0-14.3,0.2-17.3-2.8C4.2,38.8,4.8,33.3,4.8,25C4.8,13.7,3.7,5.6,15,5
			c2.6-0.1,3.4-0.1,9.9-0.1H25c10.9,0,19.4-1.1,19.9,10.2C45,17.7,45,18.5,45,25C45.1,35.1,45.3,39.2,42.2,42.2L42.2,42.2z"/>
	</g>
	<circle class="st0" cx="38.1" cy="11.9" r="2.9"/>
</g>
</svg>
