<?xml version="1.0" encoding="utf-8"?>
<!-- Generator: Adobe Illustrator 24.1.0, SVG Export Plug-In . SVG Version: 6.00 Build 0)  -->
<svg version="1.1" id="Layer_1" xmlns="http://www.w3.org/2000/svg" xmlns:xlink="http://www.w3.org/1999/xlink" x="0px" y="0px"
	 viewBox="0 0 150 150" style="enable-background:new 0 0 150 150;" xml:space="preserve">
<style type="text/css">
	.st0{fill:#DAB781;}
</style>
<g>
	<g>
		<g>
			<path class="st0" d="M116.9,31H49.8H33.1C32,31,31,32,31,33.1v25.3v7.5v10.2v40.8c0,1.1,0.9,2.1,2.1,2.1h10.7h21.9H79h13.5h24.5
				c1.1,0,2.1-0.9,2.1-2.1V33.1C119,32,118,31,116.9,31z M35.2,35.2h12.6V50c0,3.5-2.9,6.4-6.4,6.4h-6.2
				C35.2,56.4,35.2,35.2,35.2,35.2z M35.2,68h24.3v6.1H35.2V68z M63.7,114.8h-6.8l0,0v-10.3c0-1.1-0.9-2.1-2.1-2.1
				c-1.1,0-2.1,0.9-2.1,2.1v10.3h-6.8V93.5h17.8V114.8z M76.9,103.3L76.9,103.3v11.5h-9.1V91.5c0-1.1-0.9-2.1-2.1-2.1H43.8
				c-1.1,0-2.1,0.9-2.1,2.1v23.3h-6.6V78.2h26.3c1.1,0,2.1-0.9,2.1-2.1V68h7.3c-4.4,2.7-7.4,7.6-7.4,13.2c0,1.1,0.9,2.1,2.1,2.1
				h11.4L76.9,103.3L76.9,103.3z M76.9,79.1h-9.2c0.8-4.6,4.5-8.3,9.2-9.2C76.9,70,76.9,79.1,76.9,79.1z M76.9,63.9H61.5H35.2v-3.4
				h6.2c5.8,0,10.5-4.7,10.5-10.5V35.2h17.4c-3.5,2.8-5.8,7.2-5.8,12.1c0,1.1,0.9,2.1,2.1,2.1h11.4L76.9,63.9L76.9,63.9z M76.9,45.2
				h-9.2c0.8-4.6,4.5-8.3,9.2-9.2C76.9,36,76.9,45.2,76.9,45.2z M81.1,114.8v-9.3c4.6,0.9,8.3,4.6,9.2,9.3H81.1z M94.4,114.8
				c-0.9-7-6.4-12.5-13.3-13.4V81.2l0,0V68h19.3c1.1,0,2.1-0.9,2.1-2.1s-0.9-2.1-2.1-2.1H81.1V47.2l0,0V35.2h33.8v79.7L94.4,114.8
				L94.4,114.8z"/>
		</g>
	</g>
	<g>
		<g>
			<path class="st0" d="M109.2,65.5c0-0.1-0.1-0.3-0.1-0.4c-0.1-0.1-0.1-0.2-0.2-0.3s-0.2-0.2-0.3-0.3c-0.1-0.1-0.2-0.2-0.3-0.3
				c-0.1-0.1-0.2-0.1-0.4-0.2c-0.1,0-0.3-0.1-0.4-0.1c-0.3,0-0.5,0-0.8,0c-0.1,0-0.3,0.1-0.4,0.1c-0.1,0.1-0.2,0.1-0.4,0.2
				c-0.1,0.1-0.2,0.2-0.3,0.3c-0.1,0.1-0.2,0.2-0.3,0.3c-0.1,0.1-0.1,0.2-0.2,0.3c-0.1,0.1-0.1,0.3-0.1,0.4c0,0.1,0,0.3,0,0.4
				c0,0.1,0,0.3,0,0.4c0,0.1,0.1,0.3,0.1,0.4s0.1,0.3,0.2,0.4c0.1,0.1,0.2,0.2,0.3,0.3s0.2,0.2,0.3,0.3c0.1,0.1,0.2,0.1,0.4,0.2
				c0.1,0.1,0.3,0.1,0.4,0.1c0.1,0,0.3,0,0.4,0c0.1,0,0.3,0,0.4,0c0.1,0,0.3-0.1,0.4-0.1c0.1-0.1,0.3-0.1,0.4-0.2s0.2-0.2,0.3-0.3
				c0.1-0.1,0.2-0.2,0.3-0.3c0.1-0.1,0.1-0.2,0.2-0.4c0.1-0.1,0.1-0.3,0.1-0.4c0-0.1,0-0.3,0-0.4C109.2,65.8,109.2,65.7,109.2,65.5z
				"/>
		</g>
	</g>
	<g>
		<g>
			<path class="st0" d="M97.7,37.3c-6.6,0-11.9,5.4-11.9,12s5.4,12,11.9,12s11.9-5.4,11.9-12C109.6,42.6,104.3,37.3,97.7,37.3z
				 M97.7,57.1c-4.3,0-7.8-3.5-7.8-7.8s3.5-7.8,7.8-7.8s7.8,3.5,7.8,7.8S102,57.1,97.7,57.1z"/>
		</g>
	</g>
	<g>
		<g>
			<path class="st0" d="M56.8,97.3c0-0.1-0.1-0.3-0.1-0.4s-0.1-0.3-0.2-0.4s-0.2-0.2-0.3-0.3c-0.5-0.5-1.2-0.7-1.9-0.6
				c-0.1,0-0.3,0.1-0.4,0.1s-0.3,0.1-0.4,0.2s-0.2,0.2-0.3,0.3s-0.2,0.2-0.3,0.3c-0.1,0.1-0.1,0.2-0.2,0.4c0,0.1-0.1,0.3-0.1,0.4
				c0,0.1,0,0.3,0,0.4c0,0.1,0,0.3,0,0.4c0,0.1,0.1,0.3,0.1,0.4s0.1,0.3,0.2,0.4s0.2,0.2,0.3,0.3c0.1,0.1,0.2,0.2,0.3,0.3
				c0.1,0.1,0.2,0.1,0.4,0.2c0.1,0.1,0.3,0.1,0.4,0.1c0.1,0,0.3,0,0.4,0c0.5,0,1.1-0.2,1.5-0.6c0.1-0.1,0.2-0.2,0.3-0.3
				c0.1-0.1,0.1-0.2,0.2-0.4c0-0.1,0.1-0.3,0.1-0.4c0-0.1,0-0.3,0-0.4S56.8,97.4,56.8,97.3z"/>
		</g>
	</g>
</g>
</svg>
