<?xml version="1.0" encoding="utf-8"?>
<!-- Generator: Adobe Illustrator 24.1.0, SVG Export Plug-In . SVG Version: 6.00 Build 0)  -->
<svg version="1.1" id="Layer_1" xmlns="http://www.w3.org/2000/svg" xmlns:xlink="http://www.w3.org/1999/xlink" x="0px" y="0px"
	 viewBox="0 0 150 150" style="enable-background:new 0 0 150 150;" xml:space="preserve">
<style type="text/css">
	.st0{fill:#DAB781;}
</style>
<g>
	<path class="st0" d="M25.2,66.7C23.8,69.2,23,72,23,75c0,4.5,1.5,8.3,4.7,11.6c3.1,3.3,7,4.9,11.7,4.9c4.5,0,8.3-1.6,11.4-4.7
		c3.1-3.2,4.7-7,4.7-11.6c0-4.6-1.6-8.5-4.8-11.7c-3.2-3.2-7-4.8-11.4-4.8c-2.9,0-5.7,0.7-8.2,2.2C28.6,62.2,26.6,64.2,25.2,66.7z
		 M39.3,64.4c2.9,0,5.3,1,7.3,3.1s3,4.6,3,7.6c0,3-1,5.5-3,7.6c-2,2-4.4,3.1-7.2,3.1c-2.5,0-4.7-0.8-6.6-2.4c-2.5-2-3.7-4.8-3.7-8.2
		c0-3.1,1-5.7,3-7.7C34,65.4,36.4,64.4,39.3,64.4z"/>
	<polygon class="st0" points="82.5,84.8 71.3,84.8 71.3,76.6 82.5,76.6 82.5,70.8 71.3,70.8 71.3,65.2 82.5,65.2 82.5,59.4 
		65.4,59.4 65.4,90.6 82.5,90.6 	"/>
	<polygon class="st0" points="99.4,70.9 106,90.6 111.2,90.6 117.9,70.9 121.2,90.6 127,90.6 121.7,59.4 115.9,59.4 108.6,81.2 
		101.4,59.4 95.6,59.4 90.2,90.6 96,90.6 	"/>
	<polygon class="st0" points="14.2,104.9 14.2,45.1 25,45.1 25,42.1 11.2,42.1 11.2,107.9 113.6,107.9 113.6,104.9 	"/>
	<polygon class="st0" points="138.8,42.1 35.9,42.1 35.9,45.1 135.8,45.1 135.8,104.9 124.5,104.9 124.5,107.9 138.8,107.9 	"/>
</g>
</svg>
