<?xml version="1.0" encoding="utf-8"?>
<!-- Generator: Adobe Illustrator 24.1.0, SVG Export Plug-In . SVG Version: 6.00 Build 0)  -->
<svg version="1.1" id="Layer_1" xmlns="http://www.w3.org/2000/svg" xmlns:xlink="http://www.w3.org/1999/xlink" x="0px" y="0px"
	 viewBox="0 0 150 150" style="enable-background:new 0 0 150 150;" xml:space="preserve">
<style type="text/css">
	.st0{fill:#010101;}
</style>
<g>
	<path class="st0" d="M25.2,66.74c-1.45,2.51-2.17,5.26-2.17,8.25c0,4.46,1.55,8.32,4.66,11.56c3.11,3.25,7,4.87,11.7,4.87
		c4.48,0,8.29-1.58,11.43-4.74c3.14-3.16,4.71-7.02,4.71-11.59c0-4.61-1.59-8.51-4.78-11.71c-3.18-3.2-6.99-4.8-11.41-4.8
		c-2.92,0-5.65,0.73-8.18,2.2C28.64,62.25,26.65,64.23,25.2,66.74z M39.28,64.4c2.87,0,5.3,1.03,7.3,3.09c2,2.06,3,4.58,3,7.56
		c0,2.99-0.99,5.51-2.98,7.55c-1.99,2.04-4.39,3.06-7.21,3.06c-2.5,0-4.71-0.79-6.64-2.36c-2.48-2.01-3.72-4.75-3.72-8.21
		c0-3.1,0.99-5.66,2.96-7.67C33.95,65.41,36.39,64.4,39.28,64.4z"/>
	<polygon class="st0" points="82.46,84.79 71.3,84.79 71.3,76.56 82.46,76.56 82.46,70.84 71.3,70.84 71.3,65.19 82.46,65.19 
		82.46,59.36 65.39,59.36 65.39,90.64 82.46,90.64 	"/>
	<polygon class="st0" points="99.39,70.89 105.97,90.64 111.22,90.64 117.86,70.89 121.21,90.64 126.97,90.64 121.72,59.36 
		115.93,59.36 108.61,81.18 101.37,59.36 95.57,59.36 90.15,90.64 95.96,90.64 	"/>
	<polygon class="st0" points="14.22,104.86 14.22,45.14 25.04,45.14 25.04,42.08 11.16,42.08 11.16,107.92 113.63,107.92 
		113.63,104.86 	"/>
	<polygon class="st0" points="138.84,42.08 35.94,42.08 35.94,45.14 135.78,45.14 135.78,104.86 124.54,104.86 124.54,107.92 
		138.84,107.92 	"/>
</g>
</svg>
