<?xml version="1.0" encoding="utf-8"?>
<!-- Generator: Adobe Illustrator 24.1.0, SVG Export Plug-In . SVG Version: 6.00 Build 0)  -->
<svg version="1.1" id="Layer_1" xmlns="http://www.w3.org/2000/svg" xmlns:xlink="http://www.w3.org/1999/xlink" x="0px" y="0px"
	 viewBox="0 0 150 150" style="enable-background:new 0 0 150 150;" xml:space="preserve">
<style type="text/css">
	.st0{fill:#DAB781;}
	.st1{fill:none;stroke:#DAB781;stroke-width:4;stroke-miterlimit:10;}
</style>
<g>
	<g>
		<path class="st0" d="M90.1,53.5l-6.4,6.2c-2.9-3-5.8-4.5-8.7-4.5c-1.7,0-3,0.4-4.1,1.3c-1.1,0.9-1.6,1.9-1.6,3.1c0,1,0.5,2,1.4,3
			s2.7,2.1,5.5,3.2c4.9,2,8.3,3.8,10.1,5.2c1.8,1.4,3.2,3.2,4.2,5.2S92,80.5,92,83s-0.5,4.8-1.6,6.9c-1,2.1-2.4,3.8-4,5
			s-4,2.2-7.1,2.8v8.9h-6.2V98c-2.9-0.3-5.4-1.1-7.4-2.2c-2.8-1.5-5.4-3.6-7.8-6.2l6.3-6.5c4,4.3,8,6.5,11.7,6.5c1.9,0,3.6-0.7,5-2
			s2.1-2.9,2.1-4.7c0-1.5-0.4-2.9-1.3-4s-2.7-2.3-5.2-3.5c-5.3-2.4-8.8-4.4-10.7-5.8c-1.9-1.4-3.2-3-4.2-4.8
			c-0.9-1.8-1.4-3.7-1.4-5.7c0-3.3,1.2-6.2,3.6-8.6s5.5-3.7,9.2-3.8v-3.3h6.2v3.7c2.1,0.5,4,1.2,5.5,2.1
			C86.3,50,88.1,51.5,90.1,53.5z"/>
	</g>
	<circle class="st1" cx="75" cy="75" r="52.2"/>
</g>
</svg>
