<?xml version="1.0" encoding="utf-8"?>
<!-- Generator: Adobe Illustrator 24.1.0, SVG Export Plug-In . SVG Version: 6.00 Build 0)  -->
<svg version="1.1" id="Layer_1" xmlns="http://www.w3.org/2000/svg" xmlns:xlink="http://www.w3.org/1999/xlink" x="0px" y="0px"
	 viewBox="0 0 150 150" style="enable-background:new 0 0 150 150;" xml:space="preserve">
<g>
	<g>
		<path d="M104.71,73.43v-8.71h-65.2v40.27l30.54,0v-2.88h-2.73c0-1.2,0-8.39,0-9.59h4.28v-2.88h-4.28v-9.58l12.46,0l0-12.46h9.58
			v6.13h2.88V67.6h9.59v5.83L104.71,73.43z M54.85,80.06h9.59v9.59h-9.59V80.06z M67.32,67.6h9.59v9.59h-9.59V67.6z M54.85,67.6
			h9.59v9.59h-9.59V67.6z M42.39,67.6h9.59v9.59h-9.59V67.6z M42.39,80.06h9.59v9.59h-9.59V80.06z M51.97,102.11h-9.59v-9.59h9.59
			L51.97,102.11L51.97,102.11z M54.85,102.11v-9.59h9.59v9.59H54.85z"/>
		<path d="M97.7,77.18c-12.95,0-23.49,10.54-23.49,23.49c0,5.9,2.2,11.55,6.19,15.89l2.12-1.95c-3.5-3.81-5.43-8.76-5.43-13.94
			c0-11.36,9.24-20.61,20.61-20.61s20.61,9.24,20.61,20.61s-9.24,20.61-20.61,20.61c-4.83,0-9.53-1.71-13.22-4.81l-1.85,2.21
			c4.21,3.53,9.57,5.48,15.07,5.48c12.95,0,23.49-10.54,23.49-23.49S110.65,77.18,97.7,77.18L97.7,77.18z"/>
		<path d="M96.17,84.77v18.75h13.47v-2.88H99.05V84.77H96.17z"/>
		<path d="M31.69,59.57h7.81V56.7h-7.81V35.22h6.27v7.16h0v0h11.56v0h0v-7.16h7.35v7.16h0v0h11.56v-7.16h7.35v7.16h11.56v0h0v-7.16
			h7.35v7.16h0v0h11.56v0h0v-7.16h6.27V56.7H42.39v2.88h70.14v18.56h2.88V32.34h-9.15v-2.91l-2.67-3.59h-6.22l-2.67,3.59v2.91h-7.35
			v-2.91l-2.67-3.59h-6.22l-2.67,3.59v2.91h-7.35v-2.91l-2.67-3.59h-6.22l-2.67,3.59v2.91h-7.35v-2.91l-2.67-3.59h-6.22l-2.67,3.59
			v2.91h-9.15v80.2h43.11v-2.88H31.69V59.57z M98.81,28.73h3.33l1.23,1.66v9.12h-5.8v-9.12L98.81,28.73z M78.67,30.38l1.23-1.66
			h3.33l1.23,1.66v9.12h-5.8v-7.16h0L78.67,30.38L78.67,30.38z M60.99,28.73h3.33l1.23,1.66v1.96h0v7.16h-5.8v-9.12L60.99,28.73z
			 M42.08,28.73h3.33l1.23,1.66v9.12h-5.8v-9.12L42.08,28.73z"/>
	</g>
	<g>
		<path d="M82.09,51.96h-2.88v-2.88h2.88V51.96z M73.45,51.96h-2.88v-2.88h2.88V51.96z M64.82,51.96h-2.88v-2.88h2.88V51.96z"/>
	</g>
	<g>
		<path d="M81.06,100.64h2.88v2.88h-2.88V100.64z"/>
	</g>
	<g>
		<path d="M96.28,114.58h2.88v2.88h-2.88V114.58z"/>
	</g>
</g>
</svg>
