<?xml version="1.0" encoding="utf-8"?>
<!-- Generator: Adobe Illustrator 24.1.0, SVG Export Plug-In . SVG Version: 6.00 Build 0)  -->
<svg version="1.1" id="Layer_1" xmlns="http://www.w3.org/2000/svg" xmlns:xlink="http://www.w3.org/1999/xlink" x="0px" y="0px"
	 viewBox="0 0 150 150" style="enable-background:new 0 0 150 150;" xml:space="preserve">
<style type="text/css">
	.st0{fill:#DAB781;}
</style>
<g>
	<g>
		<path class="st0" d="M104.7,73.4v-8.7H39.5V105h30.5v-2.9h-2.7c0-1.2,0-8.4,0-9.6h4.3v-2.9h-4.3v-9.6h12.5V67.6h9.6v6.1h2.9v-6.1
			h9.6v5.8H104.7z M54.8,80.1h9.6v9.6h-9.6C54.9,89.6,54.9,80.1,54.8,80.1z M67.3,67.6h9.6v9.6h-9.6C67.3,77.2,67.3,67.6,67.3,67.6z
			 M54.8,67.6h9.6v9.6h-9.6C54.9,77.2,54.9,67.6,54.8,67.6z M42.4,67.6H52v9.6h-9.6V67.6z M42.4,80.1H52v9.6h-9.6V80.1z M52,102.1
			h-9.6v-9.6H52V102.1L52,102.1z M54.8,102.1v-9.6h9.6v9.6H54.8z"/>
		<path class="st0" d="M97.7,77.2c-12.9,0-23.5,10.5-23.5,23.5c0,5.9,2.2,11.6,6.2,15.9l2.1-1.9c-3.5-3.8-5.4-8.8-5.4-13.9
			c0-11.4,9.2-20.6,20.6-20.6s20.6,9.2,20.6,20.6s-9.2,20.6-20.6,20.6c-4.8,0-9.5-1.7-13.2-4.8l-1.8,2.2c4.2,3.5,9.6,5.5,15.1,5.5
			c12.9,0,23.5-10.5,23.5-23.5S110.7,77.2,97.7,77.2L97.7,77.2z"/>
		<path class="st0" d="M96.2,84.8v18.8h13.5v-2.9H99.1V84.8H96.2z"/>
		<path class="st0" d="M31.7,59.6h7.8v-2.9h-7.8V35.2H38v7.2l0,0l0,0h11.6l0,0l0,0v-7.2h7.3v7.2l0,0l0,0h11.6v-7.2h7.3v7.2h11.6l0,0
			l0,0v-7.2h7.3v7.2l0,0l0,0h11.6l0,0l0,0v-7.2h6.3v21.5H42.4v2.9h70.1v18.6h2.9V32.3h-9.2v-2.9l-2.7-3.6h-6.2l-2.7,3.6v2.9h-7.3
			v-2.9l-2.7-3.6h-6.2l-2.7,3.6v2.9h-7.3v-2.9l-2.7-3.6h-6.2l-2.7,3.6v2.9h-7.3v-2.9l-2.7-3.6h-6.2L38,29.4v2.9h-9.1v80.2h43.1v-2.9
			H31.7V59.6z M98.8,28.7h3.3l1.2,1.7v9.1h-5.8v-9.1L98.8,28.7z M78.7,30.4l1.2-1.7h3.3l1.2,1.7v9.1h-5.8v-7.2l0,0L78.7,30.4
			L78.7,30.4z M61,28.7h3.3l1.2,1.7v2l0,0v7.2h-5.8v-9.1L61,28.7z M42.1,28.7h3.3l1.2,1.7v9.1h-5.8v-9.1L42.1,28.7z"/>
	</g>
	<g>
		<path class="st0" d="M82.1,52h-2.9v-2.9h2.9V52z M73.4,52h-2.9v-2.9h2.9V52z M64.8,52h-2.9v-2.9h2.9V52z"/>
	</g>
	<g>
		<path class="st0" d="M81.1,100.6h2.9v2.9h-2.9V100.6z"/>
	</g>
	<g>
		<path class="st0" d="M96.3,114.6h2.9v2.9h-2.9V114.6z"/>
	</g>
</g>
</svg>
