<?xml version="1.0" encoding="utf-8"?>
<!-- Generator: Adobe Illustrator 24.1.0, SVG Export Plug-In . SVG Version: 6.00 Build 0)  -->
<svg version="1.1" id="Layer_1" xmlns="http://www.w3.org/2000/svg" xmlns:xlink="http://www.w3.org/1999/xlink" x="0px" y="0px"
	 viewBox="0 0 150 150" style="enable-background:new 0 0 150 150;" xml:space="preserve">
<style type="text/css">
	.st0{fill:#DAB781;}
</style>
<g>
	<g>
		<g>
			<path class="st0" d="M93.7,49.7c-2-1.4-4.1-2.6-6.4-3.6l-2.6,6.1c1.8,0.8,3.5,1.7,5.1,2.9L93.7,49.7z"/>
			<path class="st0" d="M103.4,60.5c-1.2-2.1-2.6-4.1-4.3-6L94.2,59c1.3,1.5,2.5,3.1,3.4,4.8L103.4,60.5z"/>
			<path class="st0" d="M99.9,69.1c4.1,14-3.9,28.7-17.9,32.8S53.3,98,49.2,84s3.9-28.7,17.9-32.8c3.9-1.1,8-1.4,12-0.7l1.1-6.5
				c-1.9-0.3-3.8-0.5-5.7-0.5c-18.2,0-33,14.8-33,33.1s14.8,33,33.1,33c18.2,0,33-14.8,33-33.1c0-3.1-0.5-6.2-1.3-9.2L99.9,69.1z"/>
			<path class="st0" d="M126.6,76.6l-8.5-11.7l1.5-14.3l-13.2-5.9l-5.9-13.2L86.2,33l-11.7-8.5L62.9,33l-14.3-1.5l-5.9,13.2
				l-13.2,5.9L31,64.9l-8.5,11.7L31,88.3l-1.5,14.3l13.2,5.9l5.9,13.2l14.3-1.5l11.7,8.5l11.7-8.5l14.3,1.5l5.9-13.2l13.2-5.9
				l-1.5-14.3L126.6,76.6z M101.4,103.5l-5,11.1l-12.1-1.3l-9.8,7.2l-9.8-7.2l-12.1,1.3l-5-11.1l-11.1-5l1.3-12.1l-7.2-9.8l7.2-9.8
				l-1.3-12.1l11.1-5l5-11.1l12.1,1.3l9.8-7.1l9.8,7.2l12.1-1.3l5,11.1l11.1,5l-1.3,12.1l7.2,9.8l-7.2,9.8l1.3,12.1L101.4,103.5z"/>
			<polygon class="st0" points="60.3,74.3 55.7,78.9 67.9,91.2 90.1,69 85.4,64.3 67.9,81.8 			"/>
		</g>
	</g>
</g>
</svg>
