<?xml version="1.0" encoding="utf-8"?>
<!-- Generator: Adobe Illustrator 24.1.0, SVG Export Plug-In . SVG Version: 6.00 Build 0)  -->
<svg version="1.1" id="Layer_1" xmlns="http://www.w3.org/2000/svg" xmlns:xlink="http://www.w3.org/1999/xlink" x="0px" y="0px"
	 viewBox="0 0 150 95" style="enable-background:new 0 0 150 95;" xml:space="preserve">
<style type="text/css">
	.st0{opacity:0.1;}
	.st1{fill:#F4E1AC;}
	.st2{fill:#FFFFFF;}
</style>
<g class="st0">
	
		<image style="overflow:visible;enable-background:new    ;" width="220" height="165" xlink:href="B9BAF80.png"  transform="matrix(1 0 0 1 -35 -35)">
	</image>
</g>
<g>
	<g>
		<path class="st1" d="M53.6,40.3c0.4-0.2,0.8-0.3,1.1-0.4c-0.5-0.2-1-0.3-1.5-0.5c-0.1,0.6-0.1,0.9-0.1,1
			C53.3,40.4,53.4,40.4,53.6,40.3z"/>
		<path class="st1" d="M47.8,37.8c-0.5,0-1,0.1-1.5,0.2c0.7,0.1,1.5,0.2,2.2,0.3C48.5,38,48.3,37.8,47.8,37.8z"/>
		<g>
			<path class="st1" d="M146.5,1.2c-3.4,0-7.6,1.5-12.6,4.6c-4.8,3-8.6,6.2-11.4,9.6c-1.5,1.8-2.7,3.7-3.7,5.9
				c-0.9,2.1-2.2,5.6-3.6,10.4c-0.1,0.4-0.3,1-0.6,1.9l-36,0.1c-0.5,1.7-1.1,3.2-2,4.6c7,0.4,12.6,2.1,16.9,5.1
				c4.3,3.1,6.4,6.9,6.4,11.6c0,3-0.8,5.8-2.5,8.6L96,62.1c-3.5-3.4-6.6-6.3-9.3-8.7v7.8c3.1,3,6.3,6.3,9.5,9.8
				c4-6.1,5.9-11.6,5.9-16.6c0-3.2-1.1-6.3-3.3-9.2c-2.2-2.9-5.1-5.2-8.7-6.7l23.2,0.1c-4,16.6-10.5,29.3-19.4,38.1
				c-9,8.8-19.9,13.2-32.8,13.2c-11.6,0-21.1-2.9-28.6-8.8c-4.4-3.5-7.5-7.5-9.3-12.1c-1.2,0.2-2.3,0.2-3.5,0.2
				c0.8,3,1.9,5.9,3.6,8.6c3,4.9,7.3,8.8,12.7,11.5c6.1,3.1,12.9,4.6,20.5,4.6c6.7,0,13.5-1.4,20.3-4.2c6.8-2.8,12.9-6.6,18.3-11.6
				c5.3-4.8,9.7-10.1,13.2-15.9c1.6-2.6,3.1-5.6,4.6-8.8v-4.9c0-0.4,0.3-0.7,0.7-0.7h1.6c0.9-2.3,1.8-4.7,2.6-7.2l0.7-2.1h7.8
				c3.7,0,6.1,0.1,7,0.4c1,0.3,1.5,1,1.5,2.1c0,0.8-0.2,1.7-0.6,2.9c-0.1,0.3-0.2,0.6-0.4,1.1h1.9l3.7-11.5H120l0.4-1.1l1.9-6.2
				c1.7-5.4,3.1-9.1,4.1-11.1s2.4-3.6,4.2-5c3.4-2.5,6.9-3.8,10.5-3.8c2.3,0,3.5,1,3.5,3.1c0,0.8-0.3,2.3-0.9,4.3h1.9l0.4-1.2
				c1.6-5,2.6-8.7,3-11.1C148.1,1.3,147.2,1.2,146.5,1.2z"/>
			<path class="st1" d="M53.3,39.2c0,0.1,0,0.2,0,0.3c0.5,0.1,1,0.3,1.5,0.5c0.2-0.1,0.3-0.1,0.4-0.2c0.4-0.1,0.8,0,0.9,0.4l0.1,0.3
				c3.8,1.4,7.8,3.4,12,6c3.7,2.4,7.5,5.2,11.4,8.4l2.4-5.5c-0.6-0.5-1.2-0.9-1.7-1.3c-9.2-7-18-11.2-26.3-12.6
				c-0.1,0.5-0.2,1-0.3,1.5L53.3,39.2z"/>
			<path class="st1" d="M40.5,38.1c0.9-0.6,1.9-1.2,3-1.7s2.4-1,3.8-1.4c-7.7,0.1-14.1,2.1-19.1,6c0.3,0.4,0.6,0.9,0.9,1.4
				C32.4,40,36.2,38.5,40.5,38.1z"/>
			<path class="st1" d="M83.5,54.3l-1.3,2.8c0.4,0.4,0.9,0.8,1.3,1.2V54.3z"/>
			<path class="st1" d="M25.6,45.8c-0.3-0.6-0.6-1.1-0.8-1.7c-4.1,4.5-6.1,10.3-6.1,17.2c0,1.6,0.1,3.1,0.3,4.6
				c1,0.1,2.1,0.2,3.2,0.2c-0.6-2.4-1-4.9-1-7.5C21.2,53.7,22.7,49.4,25.6,45.8z"/>
		</g>
	</g>
	<g>
		<rect x="60.3" y="48.7" class="st2" width="2.1" height="19.7"/>
		<polygon class="st2" points="85.1,48.7 84.5,48.7 83.4,48.7 75.9,66.1 68.4,48.7 67.2,48.7 66.7,48.7 65.5,48.7 65.5,68.5 
			67.2,68.5 67.2,51 74.9,68.3 74.9,68.3 74.9,68.3 76.8,68.3 76.8,68.3 76.8,68.3 84.5,51 84.5,68.5 86.2,68.5 86.2,48.7 		"/>
		<path class="st2" d="M55.7,40.6l0.3,0.8c-1.9,0.8-4,1.7-6.4,2.5l-0.7,0.2c0.1-0.6,0.2-1.2,0.3-2c0.1-0.6,0.2-1.2,0.2-1.7
			c0.1-0.7,0.2-1.2,0.2-1.7c0-1-0.5-1.5-1.5-1.5c-1.6,0-3.5,0.7-5.7,2C39.4,41,38,43,38,45.4c0,0.8,0.4,1.4,1.2,1.7s2.5,0.4,5,0.4
			h0.3c0.1-0.5,0.1-0.9,0.1-1.1c0-1.4-0.2-2.5-0.6-3.6c1.7,0.4,2.6,1.8,2.6,4.2v0.4l4-0.1c1.9,0,3.2,0.1,4,0.4
			c2.6,0.8,3.8,2.6,3.8,5.2c0,3.5-1.4,6.9-4.3,10.2c-3.4,3.9-7.6,5.8-12.5,5.8c-3.6,0-6.3-1.3-8.2-4c-4.3,2.5-8.8,3.7-13.5,3.7
			c-3.7,0-7-0.8-10-2.3c-5.9-2.9-8.8-8-8.8-15.2c0-4.6,1.3-8.4,3.9-11.3s6-4.4,10.1-4.4c4,0,7.4,1.2,10.3,3.6
			c1.6,1.3,2.9,2.9,3.9,4.8c1,1.9,2.1,4.9,3.4,9.1l1.3,4.3c0.7,2.3,1.3,4.1,1.9,5.3c1.7-0.9,3.4-2.7,5.1-5.1
			c1.7-2.5,2.8-4.8,3.2-6.8H43c-2.9,0-4.9-0.2-6.1-0.7c-1.2-0.4-1.8-1.2-1.8-2.3c0-1.8,1-3.8,3.1-6c1.7-1.8,3.6-3.2,5.9-4.3
			c2.3-1,5.2-1.8,8.8-2.4l0.9-0.1l-0.2,0.3c-0.2,0.7-0.3,1.4-0.4,1.9l-0.4,2.3c-0.1,0.7-0.2,1.2-0.2,1.4c0,0.5,0.2,0.7,0.6,0.7
			c0.3,0,0.6-0.1,0.9-0.2C54.8,40.9,55.3,40.7,55.7,40.6 M33,64.1c-0.8-1.7-1.4-3.2-1.8-4.5l-2.1-7c-1.6-5.6-3.6-9.7-5.9-12.2
			s-5.2-3.8-8.6-3.8c-3.6,0-6.4,1.1-8.4,3.4c-2,2.2-3,5.3-3,9.3c0,2.1,0.4,4.1,1.2,6.3c0.8,2.1,1.9,3.9,3.3,5.5
			c1.8,1.9,3.9,3.5,6.4,4.6s5.1,1.6,7.8,1.6C25.5,67.1,29.2,66.1,33,64.1 M46,50.4c-0.6,2.2-1.8,4.6-3.6,7c-1.9,2.4-3.9,4.4-6.2,5.9
			C37,65,38,66.2,39,66.8c1,0.7,2.3,1,4,1c3.3,0,6.3-1.3,8.8-3.8c2.6-2.5,3.8-5.5,3.8-8.7c0-1.9-0.6-3.1-1.7-3.8
			c-1.1-0.7-3.1-1.1-6-1.1h-1.3H46z"/>
		<path class="st2" d="M125.2,48.8v13.4c0,1.2-0.4,2.2-1.4,3.1c-0.9,0.9-2,1.3-3.3,1.3s-2.4-0.4-3.3-1.3s-1.4-1.9-1.4-3.1V48.8h-2
			v13.4c0,1.7,0.7,3.2,2,4.4c1.3,1.2,2.9,1.8,4.7,1.8c1.8,0,3.4-0.6,4.7-1.8c1.3-1.2,2-2.7,2-4.4V48.8H125.2z"/>
		<path class="st2" d="M138.1,59.6c0,0,6-0.6,5.9-5.5c0,0,0.3-4-3.8-5.1c-0.5-0.1-1.1-0.2-1.8-0.2h-8.3v19.4h2v-18h5.9
			c0,0,3.7,0.1,3.7,4s-2.2,4.7-5.9,4.9l6.1,8.9h2.8L138.1,59.6z"/>
	</g>
</g>
</svg>
