<?xml version="1.0" encoding="utf-8"?>
<!-- Generator: Adobe Illustrator 24.1.0, SVG Export Plug-In . SVG Version: 6.00 Build 0)  -->
<svg version="1.1" id="Layer_1" xmlns="http://www.w3.org/2000/svg" xmlns:xlink="http://www.w3.org/1999/xlink" x="0px" y="0px"
	 viewBox="0 0 150 95" style="enable-background:new 0 0 150 95;" xml:space="preserve">
<style type="text/css">
	.st0{fill:#F4E1AC;}
</style>
<g>
	<g>
		<path d="M54.3,40.3c0.4-0.2,0.8-0.3,1.1-0.4c-0.5-0.2-1-0.3-1.5-0.5c-0.1,0.6-0.1,0.9-0.1,1C54,40.4,54.1,40.4,54.3,40.3z"/>
		<path d="M48.5,37.8c-0.5,0-1,0.1-1.5,0.2c0.7,0.1,1.5,0.2,2.2,0.3C49.2,38,49,37.8,48.5,37.8z"/>
		<g>
			<path d="M147.2,1.2c-3.4,0-7.6,1.5-12.6,4.6c-4.8,3-8.6,6.2-11.4,9.6c-1.5,1.8-2.7,3.7-3.7,5.9c-0.9,2.1-2.2,5.6-3.6,10.4
				c-0.1,0.4-0.3,1-0.6,1.9l-36,0.1c-0.5,1.7-1.1,3.2-2,4.6c7,0.4,12.6,2.1,16.9,5.1c4.3,3.1,6.4,6.9,6.4,11.6c0,3-0.8,5.8-2.5,8.6
				l-1.4-1.5c-3.5-3.4-6.6-6.3-9.3-8.7v7.8c3.1,3,6.3,6.3,9.5,9.8c4-6.1,5.9-11.6,5.9-16.6c0-3.2-1.1-6.3-3.3-9.2
				c-2.2-2.9-5.1-5.2-8.7-6.7l23.2,0.1c-4,16.6-10.5,29.3-19.4,38.1c-9,8.8-19.9,13.2-32.8,13.2c-11.6,0-21.1-2.9-28.6-8.8
				c-4.4-3.5-7.5-7.5-9.3-12.1c-1.2,0.2-2.3,0.2-3.5,0.2c0.8,3,1.9,5.9,3.6,8.6c3,4.9,7.3,8.8,12.7,11.5c6.1,3.1,12.9,4.6,20.5,4.6
				c6.7,0,13.5-1.4,20.3-4.2c6.8-2.8,12.9-6.6,18.3-11.6c5.3-4.8,9.7-10.1,13.2-15.9c1.6-2.6,3.1-5.6,4.6-8.8v-4.9
				c0-0.4,0.3-0.7,0.7-0.7h1.6c0.9-2.3,1.8-4.7,2.6-7.2l0.7-2.1h7.8c3.7,0,6.1,0.1,7,0.4c1,0.3,1.5,1,1.5,2.1c0,0.8-0.2,1.7-0.6,2.9
				c-0.1,0.3-0.2,0.6-0.4,1.1h1.9l3.7-11.5h-19.4l0.4-1.1l1.9-6.2c1.7-5.4,3.1-9.1,4.1-11.1s2.4-3.6,4.2-5c3.4-2.5,6.9-3.8,10.5-3.8
				c2.3,0,3.5,1,3.5,3.1c0,0.8-0.3,2.3-0.9,4.3h1.9l0.4-1.2c1.6-5,2.6-8.7,3-11.1C148.8,1.3,147.9,1.2,147.2,1.2z"/>
			<path d="M54,39.2c0,0.1,0,0.2,0,0.3c0.5,0.1,1,0.3,1.5,0.5c0.2-0.1,0.3-0.1,0.4-0.2c0.4-0.1,0.8,0,0.9,0.4l0.1,0.3
				c3.8,1.4,7.8,3.4,12,6c3.7,2.4,7.5,5.2,11.4,8.4l2.4-5.5c-0.6-0.5-1.2-0.9-1.7-1.3c-9.2-7-18-11.2-26.3-12.6
				c-0.1,0.5-0.2,1-0.3,1.5L54,39.2z"/>
			<path d="M41.2,38.1c0.9-0.6,1.9-1.2,3-1.7s2.4-1,3.8-1.4C40.3,35,33.9,37,28.9,41c0.3,0.4,0.6,0.9,0.9,1.4
				C33.1,40,36.9,38.5,41.2,38.1z"/>
			<path d="M84.2,54.3l-1.3,2.8c0.4,0.4,0.9,0.8,1.3,1.2V54.3z"/>
			<path d="M26.3,45.8c-0.3-0.6-0.6-1.1-0.8-1.7c-4.1,4.5-6.1,10.3-6.1,17.2c0,1.6,0.1,3.1,0.3,4.6c1,0.1,2.1,0.2,3.2,0.2
				c-0.6-2.4-1-4.9-1-7.5C21.9,53.7,23.4,49.4,26.3,45.8z"/>
		</g>
	</g>
	<g>
		<rect x="61" y="48.7" width="2.1" height="19.7"/>
		<polygon points="85.8,48.7 85.2,48.7 84.1,48.7 76.6,66.1 69.1,48.7 67.9,48.7 67.4,48.7 66.2,48.7 66.2,68.5 67.9,68.5 67.9,51 
			75.6,68.3 75.6,68.3 75.6,68.3 77.5,68.3 77.5,68.3 77.5,68.3 85.2,51 85.2,68.5 86.9,68.5 86.9,48.7 		"/>
		<path d="M56.4,40.6l0.3,0.8c-1.9,0.8-4,1.7-6.4,2.5l-0.7,0.2c0.1-0.6,0.2-1.2,0.3-2c0.1-0.6,0.2-1.2,0.2-1.7
			c0.1-0.7,0.2-1.2,0.2-1.7c0-1-0.5-1.5-1.5-1.5c-1.6,0-3.5,0.7-5.7,2c-3,1.8-4.4,3.8-4.4,6.2c0,0.8,0.4,1.4,1.2,1.7s2.5,0.4,5,0.4
			h0.3c0.1-0.5,0.1-0.9,0.1-1.1c0-1.4-0.2-2.5-0.6-3.6c1.7,0.4,2.6,1.8,2.6,4.2v0.4l4-0.1c1.9,0,3.2,0.1,4,0.4
			c2.6,0.8,3.8,2.6,3.8,5.2c0,3.5-1.4,6.9-4.3,10.2c-3.4,3.9-7.6,5.8-12.5,5.8c-3.6,0-6.3-1.3-8.2-4c-4.3,2.5-8.8,3.7-13.5,3.7
			c-3.7,0-7-0.8-10-2.3c-5.9-2.9-8.8-8-8.8-15.2c0-4.6,1.3-8.4,3.9-11.3c2.6-2.9,6-4.4,10.1-4.4c4,0,7.4,1.2,10.3,3.6
			c1.6,1.3,2.9,2.9,3.9,4.8c1,1.9,2.1,4.9,3.4,9.1l1.3,4.3c0.7,2.3,1.3,4.1,1.9,5.3c1.7-0.9,3.4-2.7,5.1-5.1
			c1.7-2.5,2.8-4.8,3.2-6.8h-1.2c-2.9,0-4.9-0.2-6.1-0.7c-1.2-0.4-1.8-1.2-1.8-2.3c0-1.8,1-3.8,3.1-6c1.7-1.8,3.6-3.2,5.9-4.3
			c2.3-1,5.2-1.8,8.8-2.4l0.9-0.1l-0.2,0.3c-0.2,0.7-0.3,1.4-0.4,1.9l-0.4,2.3c-0.1,0.7-0.2,1.2-0.2,1.4c0,0.5,0.2,0.7,0.6,0.7
			c0.3,0,0.6-0.1,0.9-0.2C55.5,40.9,56,40.7,56.4,40.6 M33.7,64.1c-0.8-1.7-1.4-3.2-1.8-4.5l-2.1-7c-1.6-5.6-3.6-9.7-5.9-12.2
			s-5.2-3.8-8.6-3.8c-3.6,0-6.4,1.1-8.4,3.4c-2,2.2-3,5.3-3,9.3c0,2.1,0.4,4.1,1.2,6.3c0.8,2.1,1.9,3.9,3.3,5.5
			c1.8,1.9,3.9,3.5,6.4,4.6s5.1,1.6,7.8,1.6C26.2,67.1,29.9,66.1,33.7,64.1 M46.7,50.4c-0.6,2.2-1.8,4.6-3.6,7
			c-1.9,2.4-3.9,4.4-6.2,5.9c0.8,1.7,1.8,2.9,2.8,3.5c1,0.7,2.3,1,4,1c3.3,0,6.3-1.3,8.8-3.8c2.6-2.5,3.8-5.5,3.8-8.7
			c0-1.9-0.6-3.1-1.7-3.8c-1.1-0.7-3.1-1.1-6-1.1h-1.3H46.7z"/>
		<path d="M125.9,48.8v13.4c0,1.2-0.4,2.2-1.4,3.1c-0.9,0.9-2,1.3-3.3,1.3s-2.4-0.4-3.3-1.3s-1.4-1.9-1.4-3.1V48.8h-2v13.4
			c0,1.7,0.7,3.2,2,4.4c1.3,1.2,2.9,1.8,4.7,1.8c1.8,0,3.4-0.6,4.7-1.8c1.3-1.2,2-2.7,2-4.4V48.8H125.9z"/>
		<path d="M138.8,59.6c0,0,6-0.6,5.9-5.5c0,0,0.3-4-3.8-5.1c-0.5-0.1-1.1-0.2-1.8-0.2h-8.3v19.4h2v-18h5.9c0,0,3.7,0.1,3.7,4
			s-2.2,4.7-5.9,4.9l6.1,8.9h2.8L138.8,59.6z"/>
	</g>
</g>
<g>
	<g>
		<path class="st0" d="M53.5,39.2c0.4-0.2,0.8-0.3,1.1-0.4c-0.5-0.2-1-0.3-1.5-0.5c-0.1,0.6-0.1,0.9-0.1,1
			C53.2,39.3,53.3,39.3,53.5,39.2z"/>
		<path class="st0" d="M47.7,36.7c-0.5,0-1,0.1-1.5,0.2c0.7,0.1,1.5,0.2,2.2,0.3C48.4,36.9,48.2,36.7,47.7,36.7z"/>
		<g>
			<path class="st0" d="M146.4,0.1c-3.4,0-7.6,1.5-12.6,4.6c-4.8,3-8.6,6.2-11.4,9.6c-1.5,1.8-2.7,3.7-3.7,5.9
				c-0.9,2.1-2.2,5.6-3.6,10.4c-0.1,0.4-0.3,1-0.6,1.9l-36,0.1c-0.5,1.7-1.1,3.2-2,4.6c7,0.4,12.6,2.1,16.9,5.1
				c4.3,3.1,6.4,6.9,6.4,11.6c0,3-0.8,5.8-2.5,8.6L95.9,61c-3.5-3.4-6.6-6.3-9.3-8.7v7.8c3.1,3,6.3,6.3,9.5,9.8
				c4-6.1,5.9-11.6,5.9-16.6c0-3.2-1.1-6.3-3.3-9.2c-2.2-2.9-5.1-5.2-8.7-6.7l23.2,0.1c-4,16.6-10.5,29.3-19.4,38.1
				c-9,8.8-19.9,13.2-32.8,13.2c-11.6,0-21.1-2.9-28.6-8.8c-4.4-3.5-7.5-7.5-9.3-12.1c-1.2,0.2-2.3,0.2-3.5,0.2
				c0.8,3,1.9,5.9,3.6,8.6c3,4.9,7.3,8.8,12.7,11.5c6.1,3.1,12.9,4.6,20.5,4.6c6.7,0,13.5-1.4,20.3-4.2C83.5,85.8,89.6,82,95,77
				c5.3-4.8,9.7-10.1,13.2-15.9c1.6-2.6,3.1-5.6,4.6-8.8v-4.9c0-0.4,0.3-0.7,0.7-0.7h1.6c0.9-2.3,1.8-4.7,2.6-7.2l0.7-2.1h7.8
				c3.7,0,6.1,0.1,7,0.4c1,0.3,1.5,1,1.5,2.1c0,0.8-0.2,1.7-0.6,2.9c-0.1,0.3-0.2,0.6-0.4,1.1h1.9l3.7-11.5h-19.4l0.4-1.1l1.9-6.2
				c1.7-5.4,3.1-9.1,4.1-11.1s2.4-3.6,4.2-5c3.4-2.5,6.9-3.8,10.5-3.8c2.3,0,3.5,1,3.5,3.1c0,0.8-0.3,2.3-0.9,4.3h1.9l0.4-1.2
				c1.6-5,2.6-8.7,3-11.1C148,0.2,147.1,0.1,146.4,0.1z"/>
			<path class="st0" d="M53.2,38.1c0,0.1,0,0.2,0,0.3c0.5,0.1,1,0.3,1.5,0.5c0.2-0.1,0.3-0.1,0.4-0.2c0.4-0.1,0.8,0,0.9,0.4l0.1,0.3
				c3.8,1.4,7.8,3.4,12,6c3.7,2.4,7.5,5.2,11.4,8.4l2.4-5.5c-0.6-0.5-1.2-0.9-1.7-1.3c-9.2-7-18-11.2-26.3-12.6
				c-0.1,0.5-0.2,1-0.3,1.5L53.2,38.1z"/>
			<path class="st0" d="M40.4,37c0.9-0.6,1.9-1.2,3-1.7s2.4-1,3.8-1.4c-7.7,0.1-14.1,2.1-19.1,6c0.3,0.4,0.6,0.9,0.9,1.4
				C32.3,38.9,36.1,37.4,40.4,37z"/>
			<path class="st0" d="M83.4,53.2L82.1,56c0.4,0.4,0.9,0.8,1.3,1.2V53.2z"/>
			<path class="st0" d="M25.5,44.7c-0.3-0.6-0.6-1.1-0.8-1.7c-4.1,4.5-6.1,10.3-6.1,17.2c0,1.6,0.1,3.1,0.3,4.6
				c1,0.1,2.1,0.2,3.2,0.2c-0.6-2.4-1-4.9-1-7.5C21.1,52.6,22.6,48.3,25.5,44.7z"/>
		</g>
	</g>
	<g>
		<rect x="60.2" y="47.6" width="2.1" height="19.7"/>
		<polygon points="85,47.6 84.4,47.6 83.3,47.6 75.8,65 68.3,47.6 67.1,47.6 66.6,47.6 65.4,47.6 65.4,67.4 67.1,67.4 67.1,49.9 
			74.8,67.2 74.8,67.2 74.8,67.2 76.7,67.2 76.7,67.2 76.7,67.2 84.4,49.9 84.4,67.4 86.1,67.4 86.1,47.6 		"/>
		<path d="M55.6,39.5l0.3,0.8c-1.9,0.8-4,1.7-6.4,2.5L48.8,43c0.1-0.6,0.2-1.2,0.3-2c0.1-0.6,0.2-1.2,0.2-1.7
			c0.1-0.7,0.2-1.2,0.2-1.7c0-1-0.5-1.5-1.5-1.5c-1.6,0-3.5,0.7-5.7,2c-3,1.8-4.4,3.8-4.4,6.2c0,0.8,0.4,1.4,1.2,1.7s2.5,0.4,5,0.4
			h0.3c0.1-0.5,0.1-0.9,0.1-1.1c0-1.4-0.2-2.5-0.6-3.6c1.7,0.4,2.6,1.8,2.6,4.2v0.4l4-0.1c1.9,0,3.2,0.1,4,0.4
			c2.6,0.8,3.8,2.6,3.8,5.2c0,3.5-1.4,6.9-4.3,10.2c-3.4,3.9-7.6,5.8-12.5,5.8c-3.6,0-6.3-1.3-8.2-4c-4.3,2.5-8.8,3.7-13.5,3.7
			c-3.7,0-7-0.8-10-2.3C3.9,62.3,1,57.2,1,50c0-4.6,1.3-8.4,3.9-11.3c2.6-2.9,6-4.4,10.1-4.4c4,0,7.4,1.2,10.3,3.6
			c1.6,1.3,2.9,2.9,3.9,4.8c1,1.9,2.1,4.9,3.4,9.1l1.3,4.3c0.7,2.3,1.3,4.1,1.9,5.3c1.7-0.9,3.4-2.7,5.1-5.1
			c1.7-2.5,2.8-4.8,3.2-6.8h-1.2c-2.9,0-4.9-0.2-6.1-0.7c-1.2-0.4-1.8-1.2-1.8-2.3c0-1.8,1-3.8,3.1-6c1.7-1.8,3.6-3.2,5.9-4.3
			c2.3-1,5.2-1.8,8.8-2.4l0.9-0.1L53.5,34c-0.2,0.7-0.3,1.4-0.4,1.9l-0.4,2.3c-0.1,0.7-0.2,1.2-0.2,1.4c0,0.5,0.2,0.7,0.6,0.7
			c0.3,0,0.6-0.1,0.9-0.2C54.7,39.8,55.2,39.6,55.6,39.5 M32.9,63c-0.8-1.7-1.4-3.2-1.8-4.5l-2.1-7c-1.6-5.6-3.6-9.7-5.9-12.2
			s-5.2-3.8-8.6-3.8c-3.6,0-6.4,1.1-8.4,3.4c-2,2.2-3,5.3-3,9.3c0,2.1,0.4,4.1,1.2,6.3c0.8,2.1,1.9,3.9,3.3,5.5
			c1.8,1.9,3.9,3.5,6.4,4.6s5.1,1.6,7.8,1.6C25.4,66,29.1,65,32.9,63 M45.9,49.3c-0.6,2.2-1.8,4.6-3.6,7c-1.9,2.4-3.9,4.4-6.2,5.9
			c0.8,1.7,1.8,2.9,2.8,3.5c1,0.7,2.3,1,4,1c3.3,0,6.3-1.3,8.8-3.8c2.6-2.5,3.8-5.5,3.8-8.7c0-1.9-0.6-3.1-1.7-3.8
			c-1.1-0.7-3.1-1.1-6-1.1h-1.3H45.9z"/>
		<path d="M125.1,47.7v13.4c0,1.2-0.4,2.2-1.4,3.1c-0.9,0.9-2,1.3-3.3,1.3s-2.4-0.4-3.3-1.3s-1.4-1.9-1.4-3.1V47.7h-2v13.4
			c0,1.7,0.7,3.2,2,4.4c1.3,1.2,2.9,1.8,4.7,1.8c1.8,0,3.4-0.6,4.7-1.8c1.3-1.2,2-2.7,2-4.4V47.7H125.1z"/>
		<path d="M138,58.5c0,0,6-0.6,5.9-5.5c0,0,0.3-4-3.8-5.1c-0.5-0.1-1.1-0.2-1.8-0.2H130v19.4h2v-18h5.9c0,0,3.7,0.1,3.7,4
			s-2.2,4.7-5.9,4.9l6.1,8.9h2.8L138,58.5z"/>
	</g>
</g>
</svg>
