<?xml version="1.0" encoding="utf-8"?>
<!-- Generator: Adobe Illustrator 23.0.0, SVG Export Plug-In . SVG Version: 6.00 Build 0)  -->
<svg version="1.1" id="Layer_1" xmlns="http://www.w3.org/2000/svg" xmlns:xlink="http://www.w3.org/1999/xlink" x="0px" y="0px"
	 viewBox="0 0 50 50" style="enable-background:new 0 0 50 50;" xml:space="preserve">
<g>
	<path d="M23.8,0.5C10.9,1.1,0.7,11.9,0.7,24.9c0,3.9,1,7.7,2.6,11L0.8,48.4c-0.1,0.7,0.5,1.3,1.1,1.1l12.3-2.9
		c3.2,1.6,6.7,2.5,10.4,2.5c13.2,0.2,24.3-10.3,24.7-23.5C49.7,11.4,38-0.1,23.8,0.5z M38.5,38.3c-3.6,3.6-8.4,5.6-13.5,5.6
		c-3,0-5.8-0.7-8.5-2L14.8,41l-7.5,1.8l1.6-7.7L8,33.4c-1.3-2.6-2-5.6-2-8.6c0-5.1,2-9.9,5.6-13.5C15.1,7.8,20,5.8,25,5.8
		c5.1,0,9.9,2,13.5,5.6C42,14.9,44,19.7,44,24.8C44,29.8,42,34.7,38.5,38.3z"/>
	<path d="M36.8,30.1l-4.7-1.4c-0.6-0.2-1.3,0-1.7,0.5l-1.2,1.2c-0.5,0.5-1.2,0.7-1.9,0.4c-2.2-0.9-6.9-5.1-8.1-7.1
		c-0.3-0.6-0.3-1.4,0.1-1.9l1-1.3c0.4-0.5,0.5-1.2,0.2-1.8l-2-4.5c-0.5-1.1-1.8-1.4-2.7-0.6c-1.3,1.1-2.9,2.8-3.1,4.7
		c-0.3,3.3,1.1,7.5,6.4,12.4c6.2,5.8,11.1,6.5,14.3,5.7c1.8-0.4,3.3-2.2,4.2-3.7C38.4,31.7,37.9,30.4,36.8,30.1z"/>
</g>
</svg>
